<?xml version="1.0" encoding="utf-8"?>
<!-- Generator: Adobe Illustrator 27.0.0, SVG Export Plug-In . SVG Version: 6.00 Build 0)  -->
<svg version="1.1" id="Livello_1" xmlns="http://www.w3.org/2000/svg" xmlns:xlink="http://www.w3.org/1999/xlink" x="0px" y="0px"
	 viewBox="0 0 300 300.3" style="enable-background:new 0 0 300 300.3;" xml:space="preserve">
<style type="text/css">
	.st0{fill:none;stroke:#FBFDFC;stroke-width:25.1089;stroke-linecap:round;stroke-linejoin:round;}
</style>
<path class="st0" d="M115.5,244.5c-62.8,18.8-62.8-31.4-87.9-37.7 M203.4,282.1v-48.6c1-12.1-3.3-24-11.8-32.8
	c39.4-4.4,80.9-19.3,80.9-87.9c0-17.5-6.7-34.4-18.8-47.1c5.7-15.3,5.3-32.3-1.1-47.3c0,0-14.8-4.4-49.1,18.6
	c-28.8-7.8-59.1-7.8-87.9,0c-34.3-23-49.1-18.6-49.1-18.6c-6.4,15-6.9,32-1.1,47.3c-12.2,12.8-18.9,29.8-18.8,47.5
	c0,68,41.4,83,80.9,87.9c-8.4,8.6-12.6,20.4-11.8,32.4v48.6"/>
</svg>
