<?xml version="1.0" encoding="utf-8"?>
<!-- Generator: Adobe Illustrator 27.0.0, SVG Export Plug-In . SVG Version: 6.00 Build 0)  -->
<svg version="1.1" id="Livello_1" xmlns="http://www.w3.org/2000/svg" xmlns:xlink="http://www.w3.org/1999/xlink" x="0px" y="0px"
	 viewBox="0 0 300 300.3" style="enable-background:new 0 0 300 300.3;" xml:space="preserve">
<style type="text/css">
	.st0{fill-rule:evenodd;clip-rule:evenodd;fill:#FBFDFC;}
</style>
<path class="st0" d="M182.5,94.7v11.6c11.2-6.9,24.1-11,43.8-11c63.9,0,72.1,47.7,72.1,89.3v113.3l-73.9,0.7V190.1
	c0-18.2-6.5-21.7-18.6-21.7c-11.5,0-18.6,3.6-18.6,21.7v108.4l-74.9-0.7V94.7L182.5,94.7z M76,94.6v203.9H1.6V94.6H76L76,94.6z
	 M57.4,113.2H20.2v166.7h37.2V113.2L57.4,113.2z M163.9,113.3H131v166.2l37.7,0.3v-89.7c0-35,23.3-40.2,37.2-40.2
	c17,0,37.2,7,37.2,40.2v89.7l36.7-0.3v-94.9c0-51.5-14.5-70.7-53.5-70.7c-23.5,0-33.6,6.9-43.6,15.3l-2.6,2.2h-16.2V113.3z
	 M38.8,1.8C59.3,1.8,76,18.4,76,38.9C76,59.4,59.3,76,38.8,76C18.3,76,1.6,59.4,1.6,38.9C1.6,18.4,18.3,1.8,38.8,1.8z M38.8,20.3
	c-10.3,0-18.6,8.3-18.6,18.6c0,10.2,8.4,18.6,18.6,18.6s18.6-8.3,18.6-18.6C57.4,28.7,49.1,20.3,38.8,20.3z"/>
</svg>
