<?xml version="1.0" encoding="UTF-8"?>
<svg id="Livello_1" data-name="Livello 1" xmlns="http://www.w3.org/2000/svg" viewBox="0 0 447.88 447.87">
  <defs>
    <style>
      .cls-1 {
        fill: #fbfdfc;
      }
    </style>
  </defs>
  <path class="cls-1" d="M116.45,222.23s24.34-14.17,36.06-21.75c22.07-14.27,42.73-30.43,61.53-49.15,13.51-13.45,26.97-26.96,40.15-40.73,17.75-18.56,35.25-37.38,52.88-56.07,10.6-11.24,21.23-22.46,31.83-33.7,5.25-5.57,10.54-11.12,15.68-16.79C357.13,1.23,359.92-.03,363.76,0c24.65,.16,49.29,.1,73.94,.13,1.74,0,3.54-.08,5.21,.32,4.55,1.12,6.37,5.65,3.78,9.72-1.37,2.15-3.23,3.97-5,5.8-57.24,58.59-114.49,117.19-171.81,175.7-9.76,9.96-19.93,19.49-30.17,29.49,11.83,12.65,23.33,25.07,34.94,37.35,41.24,43.69,82.47,87.39,123.8,130.98,14.91,15.73,30.11,31.15,45.17,46.72,2.05,2.13,4.57,4.21,3.17,7.67-1.4,3.46-4.48,3.94-7.76,3.94-25.43-.03-50.84-.08-76.27,.05-4.12,.02-6.96-1.86-9.54-4.76-17.7-19.88-35.42-39.74-53.14-59.6-33.07-37.08-65.82-74.49-101.32-109.17-20.35-19.88-42.74-36.87-69.37-47.09-2.16-.83-12.93-5.01-12.93-5.01v-.02Z"/>
  <path class="cls-1" d="M4.42,397.45c-1.25,2.11-4.46,1.16-4.38-1.31v-.03c.65-19.34,.17-38.69-.03-58.03-.13-12.25,6.75-21.39,13.19-30.37,9.84-13.72,21.53-25.8,35.02-35.81,28.01-20.83,63.75-20.55,91.97-3.45,22.78,13.81,41.71,32.09,60.11,51.23,15.83,16.47,29.79,34.65,44.97,51.71,20.07,22.55,38.14,46.84,57.2,70.25,.49,.6,1.11,1.19,1.61,1.91,1.2,1.73-.05,4.15-2.12,4.17-7.37,.02-14.81-.03-22.23-.03s-14.92,.18-22.45,.18c-4.95,0-8.34-1.26-11.37-5.13-19.49-24.96-39.99-49.09-61.16-72.51-16.26-17.97-32.75-35.88-53.77-48.69-23.35-14.21-45.78-14.48-68.48,.6-12.69,8.41-22.34,20.03-31.46,32.1-7.07,9.34-13.53,19.16-19.6,29.23-2.4,3.97-6.72,13.45-7.02,13.95l-.02,.02Z"/>
  <path class="cls-1" d="M304.32,2.76c-11.74,15.63-25.94,29.09-39.08,43.51-15.31,16.8-31.13,33.09-47.22,49.12-11.68,11.63-23.41,23.22-35.82,34.07-11.79,10.31-23.5,20.69-36.39,29.59-15.33,10.57-31.52,19.51-48.26,27.5-19.7,9.38-40.29,17.2-57.31,31.59-9.16,7.74-17.29,16.66-24.38,26.47-4.27,5.93-8.55,11.89-12.07,18.36-.49,.92-1.02,2.28-2.41,2.09-1.24-.37-1.38-.93-1.38-2.7,0-17.96,1.17-29.89,1.17-50.11,0-7.08-.31-11.74,2.33-16.53,5.51-9.96,13.18-17.94,21.25-25.81,14.44-14.09,32.46-21.57,50.02-29.83,21.94-10.3,43.51-21.25,63.63-34.92,10.29-6.99,19.87-15.03,29.51-22.95,14.04-11.53,26.13-25.09,39.13-37.7,6.89-6.7,13.2-14.05,20.15-20.69,6.73-6.41,11.99-14.18,18.74-20.56C248.26,1.08,250.66-.03,253.76,0c15.44,.18,30.88,.26,46.31,.43,1.5,0,3.21-.14,4.21,.88,.38,.37,.34,1.03,.03,1.45Z"/>
  <path class="cls-1" d="M50.54,109.31c-2.69,1.23-5.75-.74-5.75-3.68,0-20.09-.02-39.78,0-59.46,0-12.35,.03-24.71,.19-37.06C45.08,2.06,48.47,0,56.35,0,75.9,0,94.97,.03,114.66,.03c7.17,0,10.68,2.22,10.72,8.77,.11,17.84-.1,35.68-.13,53.53,0,3.22-1.73,5.5-3.88,7.61-6.11,5.97-13.52,10.11-20.81,14.35-13.25,7.7-38.62,19.8-50.03,25.02h.02Z"/>
  <path class="cls-1" d="M125.36,406.78c0,10.35,.03,20.7,0,31.05-.03,7.67-2.41,10.06-9.84,10.05-20.15,0-40.31-.02-60.46-.03-6.96,0-9.69-2.5-9.84-9.58-.22-10.56-.43-19.18-.43-31.64,0-15.45,4.11-57.06,66.58-49.16,9.97,2.98,14.12,9.44,14.04,20.06-.08,9.76,0,19.52,0,29.26h-.05Z"/>
</svg>