<?xml version="1.0" encoding="utf-8"?>
<!-- Generator: Adobe Illustrator 27.0.0, SVG Export Plug-In . SVG Version: 6.00 Build 0)  -->
<svg version="1.1" id="Livello_1" xmlns="http://www.w3.org/2000/svg" xmlns:xlink="http://www.w3.org/1999/xlink" x="0px" y="0px"
	 viewBox="0 0 45 43" style="enable-background:new 0 0 45 43;" xml:space="preserve">
<style type="text/css">
	.st0{fill-rule:evenodd;clip-rule:evenodd;fill:#212123;}
</style>
<path class="st0" d="M45,0H0v43h45V0z M32.9,17.4c0.5,0,0.9,0.1,1.2,0.2h0v10c-0.4,0.2-0.9,0.2-1.4,0.2c-2.4,0-4.2-1.5-4.2-5.2
	C28.5,19.4,30.2,17.4,32.9,17.4z M33,14.4c-5.2,0-8.3,3.7-8.3,8.4c0,5.5,3.3,8.2,7.8,8.2c1.8,0,3.6-0.4,5.4-1.2
	c0.1-0.1,0.1-0.2,0.1-0.3c-0.1-0.7-0.1-1.3-0.1-1.9V9.2c0-0.1,0-0.2-0.2-0.2h-3.4c-0.1,0-0.2,0.1-0.2,0.2v5.2
	C33.7,14.4,33.4,14.4,33,14.4z M23.4,30.5l-5.9-11l5.5-10.2C23.2,9.1,23.1,9,23,9h-3.4c-0.2,0-0.3,0.1-0.4,0.3l0,0
	c-0.3,0.7-0.7,1.4-1.1,2.2c-0.9,1.9-1.9,3.9-2.8,5.8h0c-0.9-2-1.9-3.9-2.9-5.9c-0.4-0.7-0.7-1.4-1.1-2.1C11.3,9,11.2,9,11,9H7.4
	C7.3,9,7.1,9.1,7.3,9.3l5.6,10.6L7.1,30.5C7,30.6,7,30.8,7.2,30.8h3.5c0.2,0,0.3-0.1,0.4-0.2c1.3-2.7,2.7-5.6,4-8.3h0
	c1.4,2.9,2.8,5.6,4.1,8.3c0.1,0.2,0.2,0.3,0.4,0.3h3.7C23.5,30.8,23.5,30.7,23.4,30.5z"/>
</svg>
