<?xml version="1.0" encoding="utf-8"?>
<!-- Generator: Adobe Illustrator 27.0.0, SVG Export Plug-In . SVG Version: 6.00 Build 0)  -->
<svg version="1.1" id="Livello_1" xmlns="http://www.w3.org/2000/svg" xmlns:xlink="http://www.w3.org/1999/xlink" x="0px" y="0px"
	 viewBox="0 0 45 43" style="enable-background:new 0 0 45 43;" xml:space="preserve">
<style type="text/css">
	.st0{fill-rule:evenodd;clip-rule:evenodd;fill:#212123;}
</style>
<path class="st0" d="M0,0h45v43H0V0z M31,17.3c-1.6,0-2.2,0.8-2.2,1.5c0,0.7,0.4,1.2,2.5,2.3c3.2,1.5,4.2,3,4.2,5.1
	c0,3.2-2.5,4.9-5.9,4.9c-1.8,0-3.3-0.4-4.2-0.9c-0.1-0.1-0.2-0.2-0.2-0.3v-3c0-0.2,0.1-0.3,0.2-0.2c1.3,0.8,2.8,1.2,4.1,1.2
	c1.6,0,2.3-0.7,2.3-1.6c0-0.7-0.5-1.4-2.5-2.4c-2.9-1.4-4.1-2.8-4.1-5.1c0-2.6,2.1-4.7,5.6-4.7c1.8,0,3,0.3,3.7,0.6
	c0.2,0.1,0.2,0.3,0.2,0.4V18c0,0.2-0.1,0.3-0.3,0.2C33.7,17.6,32.4,17.3,31,17.3z M13.5,19.7c0.5,0,0.8,0,1.7,0c2.4,0,4.6-0.8,4.6-4
	c0-2.6-1.6-3.8-4.3-3.8c-0.8,0-1.6,0-2,0.1V19.7z M9.8,9c0-0.1,0.3-0.2,0.4-0.2c1.3-0.1,3.3-0.1,5.3-0.1c5.7,0,7.9,3.1,7.9,7
	c0,5.1-3.8,7.3-8.4,7.3c-0.8,0-1,0-1.6,0v7.7c0,0.2-0.1,0.2-0.2,0.2h-3.1c-0.2,0-0.2-0.1-0.2-0.2L9.8,9z"/>
</svg>
