<?xml version="1.0" encoding="utf-8"?>
<!-- Generator: Adobe Illustrator 27.0.0, SVG Export Plug-In . SVG Version: 6.00 Build 0)  -->
<svg version="1.1" id="Livello_1" xmlns="http://www.w3.org/2000/svg" xmlns:xlink="http://www.w3.org/1999/xlink" x="0px" y="0px"
	 viewBox="0 0 150 150" style="enable-background:new 0 0 150 150;" xml:space="preserve">
<style type="text/css">
	.st0{fill:#FBFDFC;}
</style>
<path class="st0" d="M40.5,74.5c0,0,7.8-4.5,11.6-7c7.1-4.6,13.7-9.8,19.7-15.8c4.3-4.3,8.7-8.7,12.9-13.1c5.7-6,11.3-12,17-18
	c3.4-3.6,6.8-7.2,10.2-10.8c1.7-1.8,3.4-3.6,5-5.4c0.8-0.9,1.7-1.3,2.9-1.3c7.9,0.1,15.8,0,23.7,0c0.6,0,1.1,0,1.7,0.1
	c1.5,0.4,2,1.8,1.2,3.1c-0.4,0.7-1,1.3-1.6,1.9c-18.4,18.8-36.7,37.6-55.1,56.4c-3.1,3.2-6.4,6.3-9.7,9.5c3.8,4.1,7.5,8,11.2,12
	c13.2,14,26.5,28,39.7,42c4.8,5,9.7,10,14.5,15c0.7,0.7,1.5,1.4,1,2.5c-0.4,1.1-1.4,1.3-2.5,1.3c-8.2,0-16.3,0-24.5,0
	c-1.3,0-2.2-0.6-3.1-1.5c-5.7-6.4-11.4-12.8-17.1-19.1c-10.6-11.9-21.1-23.9-32.5-35c-6.5-6.4-13.7-11.8-22.3-15.1
	C44,75.8,40.5,74.5,40.5,74.5L40.5,74.5L40.5,74.5z"/>
<path class="st0" d="M4.5,130.7c-0.4,0.7-1.4,0.4-1.4-0.4v0c0.2-6.2,0.1-12.4,0-18.6c0-3.9,2.2-6.9,4.2-9.7
	c3.2-4.4,6.9-8.3,11.2-11.5c9-6.7,20.5-6.6,29.5-1.1c7.3,4.4,13.4,10.3,19.3,16.4c5.1,5.3,9.6,11.1,14.4,16.6
	c6.4,7.2,12.2,15,18.4,22.5c0.2,0.2,0.4,0.4,0.5,0.6c0.4,0.6,0,1.3-0.7,1.3c-2.4,0-4.8,0-7.1,0s-4.8,0.1-7.2,0.1
	c-1.6,0-2.7-0.4-3.6-1.6c-6.3-8-12.8-15.8-19.6-23.3c-5.2-5.8-10.5-11.5-17.3-15.6c-7.5-4.6-14.7-4.6-22,0.2
	c-4.1,2.7-7.2,6.4-10.1,10.3c-2.3,3-4.3,6.1-6.3,9.4C6,127.5,4.6,130.5,4.5,130.7L4.5,130.7L4.5,130.7z"/>
<path class="st0" d="M100.8,4c-3.8,5-8.3,9.3-12.5,14c-4.9,5.4-10,10.6-15.2,15.8c-3.7,3.7-7.5,7.5-11.5,10.9
	c-3.8,3.3-7.5,6.6-11.7,9.5C45,57.6,39.8,60.4,34.4,63c-6.3,3-12.9,5.5-18.4,10.1c-2.9,2.5-5.5,5.3-7.8,8.5
	c-1.4,1.9-2.7,3.8-3.9,5.9c-0.2,0.3-0.3,0.7-0.8,0.7c-0.4-0.1-0.4-0.3-0.4-0.9c0-5.8,0.4-9.6,0.4-16.1c0-2.3-0.1-3.8,0.7-5.3
	c1.8-3.2,4.2-5.8,6.8-8.3c4.6-4.5,10.4-6.9,16.1-9.6c7-3.3,14-6.8,20.4-11.2c3.3-2.2,6.4-4.8,9.5-7.4c4.5-3.7,8.4-8.1,12.6-12.1
	c2.2-2.2,4.2-4.5,6.5-6.6c2.2-2.1,3.8-4.6,6-6.6c0.7-0.7,1.5-1.1,2.5-1c5,0.1,9.9,0.1,14.9,0.1c0.5,0,1,0,1.4,0.3
	C100.9,3.7,100.9,3.9,100.8,4L100.8,4z"/>
<path class="st0" d="M19.3,38.2c-0.9,0.4-1.8-0.2-1.8-1.2c0-6.4,0-12.8,0-19.1c0-4,0-7.9,0.1-11.9c0-2.3,1.1-2.9,3.6-2.9
	c6.3,0,12.4,0,18.7,0c2.3,0,3.4,0.7,3.4,2.8c0,5.7,0,11.5,0,17.2c0,1-0.6,1.8-1.2,2.4c-2,1.9-4.3,3.2-6.7,4.6
	C31.1,32.7,23,36.5,19.3,38.2L19.3,38.2L19.3,38.2z"/>
<path class="st0" d="M43.4,133.7c0,3.3,0,6.6,0,10c0,2.5-0.8,3.2-3.2,3.2c-6.5,0-12.9,0-19.4,0c-2.2,0-3.1-0.8-3.2-3.1
	c-0.1-3.4-0.1-6.2-0.1-10.2c0-5,1.3-18.3,21.4-15.8c3.2,1,4.5,3,4.5,6.4C43.3,127.4,43.4,130.6,43.4,133.7L43.4,133.7L43.4,133.7z"
	/>
</svg>
